<?xml version="1.0" encoding="UTF-8" standalone="no"?>
<svg
   clip-rule="evenodd"
   fill-rule="evenodd"
   stroke-linejoin="round"
   stroke-miterlimit="2"
   viewBox="0 0 64 64"
   version="1.1"
   id="svg10"
   sodipodi:docname="icon.svg"
   inkscape:version="1.1.2 (0a00cf5339, 2022-02-04)"
   xmlns:inkscape="http://www.inkscape.org/namespaces/inkscape"
   xmlns:sodipodi="http://sodipodi.sourceforge.net/DTD/sodipodi-0.dtd"
   xmlns="http://www.w3.org/2000/svg"
   xmlns:svg="http://www.w3.org/2000/svg"
   xmlns:rdf="http://www.w3.org/1999/02/22-rdf-syntax-ns#"
   xmlns:cc="http://creativecommons.org/ns#"
   xmlns:dc="http://purl.org/dc/elements/1.1/">
  <metadata
     id="metadata16">
    <rdf:RDF>
      <cc:Work
         rdf:about="">
        <dc:format>image/svg+xml</dc:format>
        <dc:type
           rdf:resource="http://purl.org/dc/dcmitype/StillImage" />
      </cc:Work>
    </rdf:RDF>
  </metadata>
  <defs
     id="defs14" />
  <sodipodi:namedview
     pagecolor="#ffffff"
     bordercolor="#666666"
     borderopacity="1"
     objecttolerance="10"
     gridtolerance="10"
     guidetolerance="10"
     inkscape:pageopacity="0"
     inkscape:pageshadow="2"
     inkscape:window-width="1920"
     inkscape:window-height="1012"
     id="namedview12"
     showgrid="false"
     inkscape:zoom="6.9605824"
     inkscape:cx="-18.748431"
     inkscape:cy="46.835161"
     inkscape:window-x="0"
     inkscape:window-y="0"
     inkscape:window-maximized="1"
     inkscape:current-layer="svg10"
     inkscape:pagecheckerboard="0" />
  <path
     d="m0 0h64v64h-64z"
     fill="none"
     id="path2" />
  <path
     style="fill:#676e78;fill-rule:nonzero;stroke-width:2"
     inkscape:connector-curvature="0"
     id="path4"
     d="m 9.803,56 h 4 v 4 c 0,2.208 1.792,4 4,4 h 40 c 2.208,0 4,-1.792 4,-4 V 12 c 0,-2.208 -1.792,-4 -4,-4 h -4 V 4 c 0,-2.208 -1.792,-4 -4,-4 h -40 c -2.208,0 -4,1.792 -4,4 v 48 c 0,2.208 1.792,4 4,4 z m 41,-3 h -42 V 3 h 42 z m 8,-42 v 50 h -42 v -5 h 33 c 2.208,0 4,-1.792 4,-4 V 11 Z" />
  <text
     xml:space="preserve"
     style="font-style:normal;font-weight:normal;font-size:40px;line-height:1.25;font-family:sans-serif;letter-spacing:0px;word-spacing:0px;fill:#000000;fill-opacity:1;stroke:none"
     x="17.627119"
     y="10.847458"
     id="text827" />
  <g
     fill="none"
     id="g16"
     transform="matrix(0.61052363,0,0,0.71970986,9.9038281,6.0807895)">
    <path
       d="m 1.57e-4,0 h 64 v 64 h -64 z"
       id="path2-0" />
    <g
       stroke-width="2"
       transform="matrix(2.6666646,0,0,2.6666646,1.728911e-4,1.3333589)"
       id="g14">
      <g
         id="g10">
        <path
           d="M 7,4 4.33,7 3,5.5"
           stroke="#676e78"
           id="path4-9" />
        <path
           d="M 3,11.5 4.33,13 7,10"
           stroke="#88c200"
           id="path6" />
        <path
           d="M 3,17.5 4.33,19 7,16"
           stroke="#c44d57"
           id="path8" />
      </g>
      <path
         d="M 11,6 H 21 M 11,12 H 21 M 11,18 H 21"
         stroke="#167bba"
         id="path12" />
    </g>
  </g>
</svg>
