<?xml version="1.0" encoding="UTF-8" standalone="no"?>
<svg
   clip-rule="evenodd"
   fill-rule="evenodd"
   stroke-linejoin="round"
   stroke-miterlimit="2"
   viewBox="0 0 64 64"
   version="1.1"
   id="svg10"
   sodipodi:docname="icon-dark.svg"
   inkscape:version="1.1.2 (0a00cf5339, 2022-02-04)"
   xmlns:inkscape="http://www.inkscape.org/namespaces/inkscape"
   xmlns:sodipodi="http://sodipodi.sourceforge.net/DTD/sodipodi-0.dtd"
   xmlns="http://www.w3.org/2000/svg"
   xmlns:svg="http://www.w3.org/2000/svg"
   xmlns:rdf="http://www.w3.org/1999/02/22-rdf-syntax-ns#"
   xmlns:cc="http://creativecommons.org/ns#"
   xmlns:dc="http://purl.org/dc/elements/1.1/">
  <metadata
     id="metadata16">
    <rdf:RDF>
      <cc:Work
         rdf:about="">
        <dc:format>image/svg+xml</dc:format>
        <dc:type
           rdf:resource="http://purl.org/dc/dcmitype/StillImage" />
      </cc:Work>
    </rdf:RDF>
  </metadata>
  <defs
     id="defs14">
    <filter
       inkscape:label="Soft Colors"
       inkscape:menu="Color"
       inkscape:menu-tooltip="Adds a colorizable edges glow inside objects and pictures"
       style="color-interpolation-filters:sRGB;"
       id="filter1168"
       x="-0.015625"
       y="-0.015625"
       width="1.03125"
       height="1.03125">
      <feColorMatrix
         type="saturate"
         values="1"
         result="result91"
         id="feColorMatrix1148" />
      <feComposite
         in2="result91"
         result="result15"
         operator="arithmetic"
         k2="0.4"
         k1="0.3"
         k3="0.3"
         id="feComposite1150" />
      <feGaussianBlur
         in="result15"
         result="result8"
         stdDeviation="5"
         id="feGaussianBlur1152" />
      <feColorMatrix
         values="1 0 0 0 0 0 1 0 0 0 0 0 1 0 0 0 0 0 50 0 "
         id="feColorMatrix1154" />
      <feComposite
         in2="SourceGraphic"
         operator="in"
         result="result13"
         id="feComposite1156" />
      <feComposite
         in2="result13"
         k3="0.3"
         k1="0.3"
         k2="0.4"
         operator="arithmetic"
         in="result15"
         result="result6"
         id="feComposite1158" />
      <feFlood
         flood-color="rgb(128,172,0)"
         flood-opacity="1"
         result="result10"
         id="feFlood1160" />
      <feBlend
         in2="result10"
         result="result12"
         in="result6"
         mode="darken"
         id="feBlend1162" />
      <feBlend
         in2="result6"
         result="result14"
         mode="screen"
         id="feBlend1164" />
      <feComposite
         in2="SourceGraphic"
         in="result14"
         operator="in"
         id="feComposite1166" />
    </filter>
  </defs>
  <sodipodi:namedview
     pagecolor="#ffffff"
     bordercolor="#666666"
     borderopacity="1"
     objecttolerance="10"
     gridtolerance="10"
     guidetolerance="10"
     inkscape:pageopacity="0"
     inkscape:pageshadow="2"
     inkscape:window-width="1920"
     inkscape:window-height="1012"
     id="namedview12"
     showgrid="false"
     inkscape:zoom="6.9605824"
     inkscape:cx="-14.151115"
     inkscape:cy="31.031886"
     inkscape:window-x="0"
     inkscape:window-y="0"
     inkscape:window-maximized="1"
     inkscape:current-layer="svg10"
     inkscape:pagecheckerboard="0" />
  <path
     d="m0 0h64v64h-64z"
     fill="none"
     id="path2" />
  <path
     style="fill:#c2c2cf;fill-rule:nonzero;stroke-width:2;fill-opacity:0.94117647"
     inkscape:connector-curvature="0"
     id="path4"
     d="m 9.803,56 h 4 v 4 c 0,2.208 1.792,4 4,4 h 40 c 2.208,0 4,-1.792 4,-4 V 12 c 0,-2.208 -1.792,-4 -4,-4 h -4 V 4 c 0,-2.208 -1.792,-4 -4,-4 h -40 c -2.208,0 -4,1.792 -4,4 v 48 c 0,2.208 1.792,4 4,4 z m 41,-3 h -42 V 3 h 42 z m 8,-42 v 50 h -42 v -5 h 33 c 2.208,0 4,-1.792 4,-4 V 11 Z" />
  <text
     xml:space="preserve"
     style="font-style:normal;font-weight:normal;font-size:40px;line-height:1.25;font-family:sans-serif;letter-spacing:0px;word-spacing:0px;fill:#000000;fill-opacity:1;stroke:none"
     x="17.627119"
     y="10.847458"
     id="text827" />
  <g
     id="g829"
     transform="matrix(0.04271512,0,0,0.04271512,7.8984664,4.613945)"
     style="filter:url(#filter1168)">
    <path
       d="m 128,469.33333 h 85.33333 v 85.33334 H 128 Z m 0,-170.66666 h 85.33333 V 384 H 128 Z M 128,640 h 85.33333 v 85.33333 H 128 Z m 0,-512 h 85.33333 v 85.33333 H 128 Z m 0,682.66667 h 85.33333 V 896 H 128 Z"
       fill="#2196f3"
       id="path2-5" />
    <path
       d="M 298.66667,469.33333 H 896 v 85.33334 H 298.66667 Z m 0,-170.66666 H 896 V 384 H 298.66667 Z m 0,341.33333 H 896 v 85.33333 H 298.66667 Z m 0,-512 H 896 v 85.33333 H 298.66667 Z m 0,682.66667 H 896 V 896 H 298.66667 Z"
       fill="#2196f3"
       id="path4-0" />
  </g>
</svg>
